<svg width="24" height="24" viewBox="0 0 24 24" fill="none" xmlns="http://www.w3.org/2000/svg">
  <mask id="mask0_4_190" style="mask-type:alpha" maskUnits="userSpaceOnUse" x="0" y="0" width="24" height="24">
    <rect width="24" height="24" fill="#D9D9D9" />
  </mask>
  <g mask="url(#mask0_4_190)">
    <path fill-rule="evenodd" clip-rule="evenodd"
      d="M7.825 20C7.60833 20.5833 7.24583 21.0625 6.7375 21.4375C6.22917 21.8125 5.65 22 5 22C4.16667 22 3.45833 21.7083 2.875 21.125C2.29167 20.5417 2 19.8333 2 19C2 18.35 2.1875 17.7708 2.5625 17.2625C2.9375 16.7542 3.41667 16.3917 4 16.175V7.825C3.41667 7.60833 2.9375 7.24583 2.5625 6.7375C2.1875 6.22917 2 5.65 2 5C2 4.16667 2.29167 3.45833 2.875 2.875C3.45833 2.29167 4.16667 2 5 2C5.65 2 6.22917 2.1875 6.7375 2.5625C7.24583 2.9375 7.65 3.5 7.825 4C8 4.5 8 5.5 7.825 6C7.65 6.5 7.44167 6.80833 7.125 7.125C6.80833 7.44167 6.43333 7.675 6 7.825V16.175C6.43333 16.325 6.80833 16.5583 7.125 16.875C7.44167 17.1917 7.675 17.5667 7.825 18C7.975 18.4333 8.04167 19.4167 7.825 20ZM5.7125 19.7125C5.52083 19.9042 5.28333 20 5 20C4.71667 20 4.47917 19.9042 4.2875 19.7125C4.09583 19.5208 4 19.2833 4 19C4 18.7167 4.09583 18.4792 4.2875 18.2875C4.47917 18.0958 4.71667 18 5 18C5.28333 18 5.52083 18.0958 5.7125 18.2875C5.90417 18.4792 6 18.7167 6 19C6 19.2833 5.90417 19.5208 5.7125 19.7125ZM5.7125 5.7125C5.52083 5.90417 5.28333 6 5 6C4.71667 6 4.47917 5.90417 4.2875 5.7125C4.09583 5.52083 4 5.28333 4 5C4 4.71667 4.09583 4.47917 4.2875 4.2875C4.47917 4.09583 4.71667 4 5 4C5.28333 4 5.52083 4.09583 5.7125 4.2875C5.90417 4.47917 6 4.71667 6 5C6 5.28333 5.90417 5.52083 5.7125 5.7125Z"
      fill="#C7C7C7" />
    <path fill-rule="evenodd" clip-rule="evenodd"
      d="M19 22C18.1667 22 17.4583 21.7083 16.875 21.125C16.2917 20.5417 16 19.8333 16 19C16 18.3333 16.1875 17.7458 16.5625 17.2375C16.9375 16.7292 17.4167 16.375 18 16.175V7.825V7C18 6.5 17.5 6.02114 17 6.02114H12.825L13.95 7.14614C14.15 7.34614 14.25 7.57948 14.25 7.84614C14.25 8.11281 14.15 8.34614 13.95 8.54614C13.75 8.74614 13.5125 8.84614 13.2375 8.84614C12.9625 8.84614 12.725 8.74614 12.525 8.54614L9.7 5.72114C9.5 5.52114 9.4 5.28781 9.4 5.02114C9.4 4.75448 9.5 4.52114 9.7 4.32114L12.55 1.47114C12.75 1.27114 12.9833 1.17114 13.25 1.17114C13.5167 1.17114 13.75 1.27114 13.95 1.47114C14.15 1.67114 14.25 1.90864 14.25 2.18364C14.25 2.45864 14.15 2.69614 13.95 2.89614L12.825 4.02114H17C18.5 4.02114 20 5.5 20 7V7.825V16.175C20.5833 16.3917 21.0625 16.7542 21.4375 17.2625C21.8125 17.7708 22 18.35 22 19C22 19.8333 21.7083 20.5417 21.125 21.125C20.5417 21.7083 19.8333 22 19 22ZM19.7125 19.7125C19.5208 19.9042 19.2833 20 19 20C18.7167 20 18.4792 19.9042 18.2875 19.7125C18.0958 19.5208 18 19.2833 18 19C18 18.7167 18.0958 18.4792 18.2875 18.2875C18.4792 18.0958 18.7167 18 19 18C19.2833 18 19.5208 18.0958 19.7125 18.2875C19.9042 18.4792 20 18.7167 20 19C20 19.2833 19.9042 19.5208 19.7125 19.7125Z"
      fill="#C7C7C7" />
  </g>
</svg>